#!OML:ASF F:\VICON\USERDATA\INSTALL\rory3\rory3.ASF
:FULLY-SPECIFIED
:DEGREES
214
root 4.31056 17.3671 0.737098 14.696 3.56555 -3.84772
lowerback -4.78584 -0.500774 1.90672
upperback -6.5696 -0.619283 2.67633
thorax -4.09882 -0.323397 1.69277
lowerneck -6.86911 11.6032 9.1576
upperneck 35.1324 15.9724 -1.27663
head 14.0029 8.08535 0.245613
rclavicle -9.7156e-015 9.54166e-015
rhumerus 0.324945 -8.0317 -9.30871
rradius 132.558
rwrist -53.1256
rhand -2.32345 -45.6727
rfingers 7.12502
rthumb 23.3631 -74.2747
lclavicle -9.7156e-015 9.54166e-015
lhumerus 33.3815 18.075 -1.31051
lradius 73.2169
lwrist 66.2403
lhand -19.6758 -17.2636
lfingers 7.12502
lthumb 6.65277 12.6119
rfemur -27.0462 3.89019 4.40443
rtibia 45.1019
rfoot 5.84643 -14.629
rtoes -18.5614
lfemur -25.4119 -1.16853 -25.1169
ltibia 30.0459
lfoot -17.7991 6.5664
ltoes 12.0248
215
root 4.30055 17.3637 0.740972 14.5911 3.67024 -4.03342
lowerback -4.79396 -0.536182 1.95897
upperback -6.46205 -0.669787 2.73724
thorax -3.98053 -0.349136 1.72422
lowerneck -7.12932 11.6561 9.13446
upperneck 35.3582 16.0423 -1.24299
head 14.1606 8.10493 0.302285
rclavicle 2.61992e-014 -6.75868e-015
rhumerus 0.323902 -7.95859 -9.40267
rradius 132.587
rwrist -53.1005
rhand -2.3242 -45.8188
rfingers 7.12502
rthumb 23.3624 -74.421
lclavicle 2.61992e-014 -6.75868e-015
lhumerus 33.4776 18.0607 -1.07389
lradius 73.3696
lwrist 66.5161
lhand -19.2108 -17.2685
lfingers 7.12502
lthumb 7.1017 12.5923
rfemur -27.3041 4.03135 4.97653
rtibia 45.7774
rfoot 5.02331 -14.6197
rtoes -17.7606
lfemur -25.3976 -1.16049 -24.862
ltibia 30.2039
lfoot -17.8313 6.50105
ltoes 12.0634
216
root 4.29144 17.3628 0.741301 14.5845 3.69004 -4.07362
lowerback -4.83731 -0.574964 1.85179
upperback -6.40161 -0.722318 2.77641
thorax -3.88981 -0.369738 1.82253
lowerneck -7.29607 11.7038 9.02477
upperneck 35.5867 16.1089 -1.1507
head 14.2835 8.12256 0.386323
rclavicle 1.38109e-014 -1.31198e-014
rhumerus 0.346765 -7.84214 -9.46043
rradius 132.654
rwrist -53.0994
rhand -2.49766 -45.8435
rfingers 7.12502
rthumb 23.196 -74.4667
lclavicle 1.38109e-014 -1.31198e-014
lhumerus 33.2857 17.9307 -1.18829
lradius 73.6952
lwrist 66.7309
lhand -19.6816 -17.7111
lfingers 7.12502
lthumb 6.64718 12.1646
rfemur -27.7761 4.18811 5.35588
rtibia 46.5078
rfoot 4.62112 -14.5273
rtoes -18.5337
lfemur -25.4889 -1.12004 -24.7872
ltibia 30.3855
lfoot -17.8906 6.44739
ltoes 12.2029
217
root 4.28051 17.3588 0.730861 14.6148 3.69617 -3.93788
lowerback -4.79574 -0.609731 1.57949
upperback -6.35297 -0.764565 2.75011
thorax -3.85724 -0.380035 1.94688
lowerneck -7.56099 11.7061 8.88792
upperneck 36.023 16.0603 -0.889729
head 14.496 8.1023 0.536806
rclavicle -3.16502e-015 1.11319e-014
rhumerus 0.286333 -7.76672 -9.4948
rradius 132.697
rwrist -53.143
rhand -2.18707 -45.5893
rfingers 7.12502
rthumb 23.494 -74.1746
lclavicle -3.16502e-015 1.11319e-014
lhumerus 33.2833 17.8152 -1.15814
lradius 73.987
lwrist 66.8466
lhand -20.8018 -18.9533
lfingers 7.12502
lthumb 5.5657 10.9536
rfemur -28.3777 4.21437 5.55002
rtibia 47.2886
rfoot 4.70492 -14.2799
rtoes -19.2567
lfemur -25.6689 -1.10912 -24.9052
ltibia 30.5614
lfoot -17.9548 6.37571
ltoes 12.2563
218
root 4.27161 17.3488 0.715594 14.5565 3.74854 -3.81464
lowerback -4.59052 -0.627503 1.39259
upperback -6.29287 -0.782421 2.67428
thorax -3.9067 -0.383014 1.97464
lowerneck -8.14178 11.6669 8.81122
upperneck 36.9212 15.8528 -0.372145
head 14.9715 8.03792 0.800392
rclavicle 9.29755e-015 -3.97569e-016
rhumerus 0.0872724 -7.56018 -9.56905
rradius 132.629
rwrist -52.9025
rhand -2.07128 -44.7264
rfingers 7.12502
rthumb 23.605 -73.2975
lclavicle 9.29755e-015 -3.97569e-016
lhumerus 33.478 17.6004 -1.03738
lradius 74.1775
lwrist 66.5332
lhand -22.2578 -20.9564
lfingers 7.12502
lthumb 4.15983 8.98276
rfemur -28.8836 4.16637 5.76313
rtibia 48.0847
rfoot 4.85568 -14.0152
rtoes -17.6979
lfemur -25.7749 -1.18499 -25.0043
ltibia 30.7312
lfoot -17.925 6.3836
ltoes 12.2288
219
root 4.26648 17.3383 0.706256 14.4609 3.74864 -3.69709
lowerback -4.39633 -0.649884 1.22814
upperback -6.25769 -0.807081 2.60719
thorax -3.97636 -0.390088 1.99921
lowerneck -9.47709 11.8094 7.93783
upperneck 38.1365 15.8661 0.710085
head 15.6394 8.01144 1.52529
rclavicle -1.32994e-014 1.59028e-014
rhumerus 0.00182671 -7.24499 -9.70401
rradius 132.557
rwrist -52.6345
rhand -2.36992 -44.0126
rfingers 7.12502
rthumb 23.3185 -72.6204
lclavicle -1.32994e-014 1.59028e-014
lhumerus 33.5316 17.2077 -1.02414
lradius 74.3775
lwrist 65.8575
lhand -23.0078 -21.4271
lfingers 7.12502
lthumb 3.43554 8.52498
rfemur -29.3269 4.13342 5.93411
rtibia 48.8505
rfoot 3.90905 -14.0097
rtoes -18.8351
lfemur -25.7909 -1.26286 -25.1136
ltibia 30.9082
lfoot -17.9451 6.45971
ltoes 12.4307
220
root 4.25787 17.3325 0.703986 14.3853 3.6766 -3.66906
lowerback -4.33167 -0.665108 1.07235
upperback -6.25015 -0.824187 2.59368
thorax -4.0021 -0.392392 2.0732
lowerneck -9.17974 11.785 8.04003
upperneck 38.1271 15.8711 0.592787
head 15.5935 8.01965 1.43989
rclavicle -1.53063e-014 1.92821e-014
rhumerus 0.0547684 -7.01229 -9.85038
rradius 132.555
rwrist -52.6325
rhand -2.52972 -43.9396
rfingers 7.12502
rthumb 23.1652 -72.5667
lclavicle -1.53063e-014 1.92821e-014
lhumerus 33.5107 16.8619 -0.99387
lradius 74.6084
lwrist 65.7163
lhand -22.7507 -20.3356
lfingers 7.12502
lthumb 3.68384 9.61227
rfemur -29.7518 4.2382 6.20471
rtibia 49.5307
rfoot 3.36057 -13.8988
rtoes -18.608
lfemur -25.8342 -1.24523 -25.1191
ltibia 31.0806
lfoot -18.0261 6.50712
ltoes 12.6274
221
root 4.25059 17.3292 0.70497 14.3015 3.52519 -3.71447
lowerback -4.31322 -0.64323 1.00274
upperback -6.23274 -0.794457 2.58383
thorax -3.9941 -0.374911 2.10223
lowerneck -8.99585 11.7502 8.07354
upperneck 38.2265 15.8524 0.543129
head 15.6106 8.01245 1.40246
rclavicle 5.39786e-015 -4.47266e-014
rhumerus 0.0432851 -6.83108 -9.95323
rradius 132.597
rwrist -52.7865
rhand -2.58727 -44.0545
rfingers 7.12502
rthumb 23.11 -72.6885
lclavicle 5.39786e-015 -4.47266e-014
lhumerus 33.2988 16.481 -1.24156
lradius 74.9872
lwrist 66.2852
lhand -22.6324 -19.7086
lfingers 7.12502
lthumb 3.7981 10.2373
rfemur -30.1535 4.46738 6.53248
rtibia 50.1268
rfoot 3.36927 -13.5684
rtoes -19.3089
lfemur -25.8525 -1.19257 -25.0648
ltibia 31.2479
lfoot -18.0236 6.64762
ltoes 12.3576
